<?xml version="1.0" encoding="UTF-8"?>
<svg xmlns="http://www.w3.org/2000/svg" xmlns:xlink="http://www.w3.org/1999/xlink" viewBox="0 0 1013 638">
  <defs>
    <style>
      .cls-1 {
        fill: none;
      }

      .cls-2 {
        fill: #717990;
      }

      .cls-3 {
        fill: url(#linear-gradient);
      }

      .cls-4 {
        isolation: isolate;
      }

      .cls-5, .cls-6 {
        fill: #fff;
      }

      .cls-7 {
        letter-spacing: 0em;
      }

      .cls-8 {
        mix-blend-mode: overlay;
        opacity: .4;
      }

      .cls-9 {
        letter-spacing: -.02em;
      }

      .cls-6 {
        font-family: Orbitron-Black, Orbitron;
        font-size: 59.11px;
        font-weight: 800;
      }

      .cls-10 {
        clip-path: url(#clippath);
      }

      .cls-11 {
        letter-spacing: .04em;
      }

      .cls-12 {
        letter-spacing: .03em;
      }

      .cls-13 {
        letter-spacing: 0em;
      }
    </style>
    <linearGradient id="linear-gradient" x1="-72.05" y1="321.45" x2="1046.84" y2="321.45" gradientUnits="userSpaceOnUse">
      <stop offset="0" stop-color="#f09394"/>
      <stop offset=".22" stop-color="#c88b9c"/>
      <stop offset=".76" stop-color="#6a79af"/>
      <stop offset="1" stop-color="#4572b7"/>
    </linearGradient>
    <clipPath id="clippath">
      <rect class="cls-1" x="-72.05" width="1118.9" height="642.91" rx="13" ry="13"/>
    </clipPath>
  </defs>
  <g class="cls-4">
    <g id="Layer_1" data-name="Layer 1">
      <rect class="cls-3" x="-72.05" width="1118.9" height="642.91" rx="13" ry="13"/>
      <g class="cls-10">
        <g class="cls-8">
          <g>
            <g>
              <g>
                <g>
                  <path class="cls-5" d="M-79.59,406.58l-114.44-114.45,114.44-114.44,114.44,114.44-114.44,114.45ZM-186.73,292.13l107.14,107.14,107.14-107.14-107.14-107.14-107.14,107.14Z"/>
                  <path class="cls-5" d="M-79.59,376.14l-84.01-84.01,84.01-84.01L4.41,292.13l-84.01,84.01ZM-156.29,292.13l76.7,76.7L-2.89,292.13l-76.7-76.7-76.7,76.7Z"/>
                </g>
                <g>
                  <g>
                    <path class="cls-5" d="M-80.75,628.55l-114.44-114.45,114.44-114.44,114.44,114.44-114.44,114.45ZM-187.89,514.1l107.14,107.14,107.14-107.14-107.14-107.14-107.14,107.14Z"/>
                    <path class="cls-5" d="M-80.75,598.11l-84.01-84.01,84.01-84.01L3.25,514.1l-84,84.01ZM-157.46,514.1l76.7,76.7L-4.05,514.1l-76.7-76.7-76.7,76.7Z"/>
                  </g>
                  <g>
                    <path class="cls-5" d="M142.35,628.55l-114.44-114.45,114.44-114.44,114.44,114.44-114.44,114.45ZM35.21,514.1l107.14,107.14,107.14-107.14-107.14-107.14-107.14,107.14Z"/>
                    <path class="cls-5" d="M142.35,598.11l-84.01-84.01,84.01-84.01,84.01,84.01-84.01,84.01ZM65.65,514.1l76.7,76.7,76.7-76.7-76.7-76.7-76.7,76.7Z"/>
                    <path class="cls-5" d="M142.35,568.89l-54.79-54.79,54.79-54.79,54.79,54.79-54.79,54.79ZM94.87,514.1l47.48,47.48,47.48-47.48-47.48-47.48-47.48,47.48Z"/>
                  </g>
                  <g>
                    <path class="cls-5" d="M30.8,739.34l-114.44-114.45,114.44-114.45,114.44,114.45-114.44,114.45ZM-76.34,624.9l107.14,107.14,107.14-107.14-107.14-107.14-107.14,107.14Z"/>
                    <path class="cls-5" d="M30.8,708.9l-84.01-84.01,84.01-84.01,84.01,84.01-84.01,84.01ZM-45.9,624.9l76.7,76.7,76.7-76.7-76.7-76.7-76.7,76.7Z"/>
                    <path class="cls-5" d="M30.8,679.68l-54.79-54.79,54.79-54.79,54.79,54.79-54.79,54.79ZM-16.68,624.9l47.48,47.48,47.48-47.48-47.48-47.48-47.48,47.48Z"/>
                  </g>
                  <g>
                    <path class="cls-5" d="M31.11,517.31l-114.44-114.45,114.44-114.44,114.44,114.44-114.44,114.45ZM-76.03,402.86l107.14,107.14,107.14-107.14-107.14-107.14-107.14,107.14Z"/>
                    <path class="cls-5" d="M31.11,486.87l-84.01-84.01,84.01-84.01,84.01,84.01-84.01,84.01ZM-45.6,402.86l76.7,76.7,76.7-76.7-76.7-76.7-76.7,76.7Z"/>
                    <path class="cls-5" d="M31.11,457.65l-54.79-54.79,54.79-54.79,54.79,54.79-54.79,54.79ZM-16.38,402.86l47.48,47.48,47.48-47.48-47.48-47.48-47.48,47.48Z"/>
                  </g>
                </g>
              </g>
              <g>
                <g>
                  <g>
                    <path class="cls-5" d="M-80.36,184.67l-114.44-114.44L-80.36-44.22,34.08,70.22l-114.44,114.44ZM-187.5,70.22l107.14,107.14L26.78,70.22-80.36-36.91l-107.14,107.14Z"/>
                    <path class="cls-5" d="M-80.36,154.23l-84.01-84.01L-80.36-13.78,3.65,70.22l-84.01,84.01ZM-157.06,70.22l76.7,76.7L-3.66,70.22-80.36-6.48l-76.7,76.7Z"/>
                  </g>
                  <g>
                    <path class="cls-5" d="M142.74,184.67L28.3,70.22l114.44-114.45,114.44,114.45-114.44,114.44ZM35.6,70.22l107.14,107.14,107.14-107.14-107.14-107.14L35.6,70.22Z"/>
                    <path class="cls-5" d="M142.74,154.23L58.74,70.22,142.74-13.78l84.01,84.01-84.01,84.01ZM66.04,70.22l76.7,76.7,76.7-76.7L142.74-6.48l-76.7,76.7Z"/>
                    <path class="cls-5" d="M142.74,125.01l-54.79-54.79,54.79-54.79,54.79,54.79-54.79,54.79ZM95.26,70.22l47.48,47.48,47.48-47.48-47.48-47.48-47.48,47.48Z"/>
                  </g>
                  <g>
                    <path class="cls-5" d="M31.19,295.46l-114.44-114.45L31.19,66.57l114.44,114.44-114.44,114.45ZM-75.95,181.01l107.14,107.14,107.14-107.14L31.19,73.88l-107.14,107.14Z"/>
                    <path class="cls-5" d="M31.19,265.02l-84.01-84.01L31.19,97.01l84.01,84.01-84.01,84.01ZM-45.51,181.01l76.7,76.7,76.7-76.7L31.19,104.31l-76.7,76.7Z"/>
                    <path class="cls-5" d="M31.19,235.8l-54.79-54.79,54.79-54.79,54.79,54.79-54.79,54.79ZM-16.29,181.01l47.48,47.48,47.48-47.48-47.48-47.48-47.48,47.48Z"/>
                  </g>
                  <g>
                    <path class="cls-5" d="M31.5,73.43L-82.94-41.02,31.5-155.46l114.44,114.45L31.5,73.43ZM-75.64-41.02L31.5,66.12l107.14-107.14L31.5-148.16-75.64-41.02Z"/>
                    <path class="cls-5" d="M31.5,42.99L-52.51-41.02,31.5-125.03,115.51-41.02,31.5,42.99ZM-45.2-41.02L31.5,35.68,108.2-41.02,31.5-117.72-45.2-41.02Z"/>
                    <path class="cls-5" d="M31.5,13.77L-23.29-41.02l54.79-54.79,54.79,54.79L31.5,13.77ZM-15.98-41.02L31.5,6.46l47.48-47.48-47.48-47.48L-15.98-41.02Z"/>
                  </g>
                </g>
                <g>
                  <g>
                    <path class="cls-5" d="M141.58,406.64l-114.44-114.44,114.44-114.45,114.44,114.45-114.44,114.44ZM34.44,292.2l107.14,107.14,107.14-107.14-107.14-107.14-107.14,107.14Z"/>
                    <path class="cls-5" d="M141.58,376.2l-84.01-84.01,84.01-84.01,84.01,84.01-84.01,84.01ZM64.88,292.2l76.7,76.7,76.7-76.7-76.7-76.7-76.7,76.7Z"/>
                    <path class="cls-5" d="M141.58,346.99l-54.79-54.79,54.79-54.79,54.79,54.79-54.79,54.79ZM94.1,292.2l47.48,47.48,47.48-47.48-47.48-47.48-47.48,47.48Z"/>
                  </g>
                  <g>
                    <path class="cls-5" d="M364.68,406.64l-114.44-114.44,114.44-114.45,114.44,114.45-114.44,114.44ZM257.54,292.2l107.14,107.14,107.14-107.14-107.14-107.14-107.14,107.14Z"/>
                    <path class="cls-5" d="M364.68,376.2l-84.01-84.01,84.01-84.01,84.01,84.01-84.01,84.01ZM287.98,292.2l76.7,76.7,76.7-76.7-76.7-76.7-76.7,76.7Z"/>
                    <path class="cls-5" d="M364.68,346.99l-54.79-54.79,54.79-54.79,54.79,54.79-54.79,54.79ZM317.2,292.2l47.48,47.48,47.48-47.48-47.48-47.48-47.48,47.48Z"/>
                  </g>
                  <g>
                    <path class="cls-5" d="M253.13,517.43l-114.44-114.45,114.44-114.44,114.44,114.44-114.44,114.45ZM145.99,402.99l107.14,107.14,107.14-107.14-107.14-107.14-107.14,107.14Z"/>
                    <path class="cls-5" d="M253.13,487l-84-84.01,84-84.01,84.01,84.01-84.01,84.01ZM176.43,402.99l76.7,76.7,76.7-76.7-76.7-76.7-76.7,76.7Z"/>
                    <path class="cls-5" d="M253.13,457.78l-54.79-54.79,54.79-54.79,54.79,54.79-54.79,54.79ZM205.65,402.99l47.48,47.48,47.48-47.48-47.48-47.48-47.48,47.48Z"/>
                  </g>
                  <g>
                    <path class="cls-5" d="M253.44,295.4l-114.44-114.44,114.44-114.45,114.44,114.45-114.44,114.44ZM146.3,180.96l107.14,107.14,107.14-107.14-107.14-107.14-107.14,107.14Z"/>
                    <path class="cls-5" d="M253.44,264.96l-84-84.01,84-84.01,84.01,84.01-84.01,84.01ZM176.74,180.96l76.7,76.7,76.7-76.7-76.7-76.7-76.7,76.7Z"/>
                    <path class="cls-5" d="M253.44,235.74l-54.79-54.79,54.79-54.79,54.79,54.79-54.79,54.79ZM205.96,180.96l47.48,47.48,47.48-47.48-47.48-47.48-47.48,47.48Z"/>
                  </g>
                </g>
              </g>
            </g>
            <g>
              <g>
                <path class="cls-5" d="M141.39,850.54l-114.44-114.45,114.44-114.44,114.44,114.44-114.44,114.45ZM34.25,736.09l107.14,107.14,107.14-107.14-107.14-107.14-107.14,107.14Z"/>
                <path class="cls-5" d="M364.49,850.54l-114.44-114.45,114.44-114.44,114.44,114.44-114.44,114.45ZM257.35,736.09l107.14,107.14,107.14-107.14-107.14-107.14-107.14,107.14Z"/>
                <g>
                  <path class="cls-5" d="M253.25,739.3l-114.44-114.45,114.44-114.44,114.44,114.44-114.44,114.45ZM146.11,624.85l107.14,107.14,107.14-107.14-107.14-107.14-107.14,107.14Z"/>
                  <path class="cls-5" d="M253.25,708.86l-84.01-84.01,84.01-84.01,84.01,84.01-84.01,84.01ZM176.55,624.85l76.7,76.7,76.7-76.7-76.7-76.7-76.7,76.7Z"/>
                  <path class="cls-5" d="M253.25,679.64l-54.79-54.79,54.79-54.79,54.79,54.79-54.79,54.79ZM205.77,624.85l47.48,47.48,47.48-47.48-47.48-47.48-47.48,47.48Z"/>
                </g>
              </g>
              <g>
                <g>
                  <g>
                    <path class="cls-5" d="M363.72,628.63l-114.44-114.44,114.44-114.45,114.44,114.45-114.44,114.44ZM256.59,514.19l107.14,107.14,107.14-107.14-107.14-107.14-107.14,107.14Z"/>
                    <path class="cls-5" d="M363.72,598.19l-84-84.01,84-84.01,84.01,84.01-84.01,84.01ZM287.02,514.19l76.7,76.7,76.7-76.7-76.7-76.7-76.7,76.7Z"/>
                    <path class="cls-5" d="M363.72,568.97l-54.79-54.79,54.79-54.79,54.79,54.79-54.79,54.79ZM316.24,514.19l47.48,47.48,47.48-47.48-47.48-47.48-47.48,47.48Z"/>
                  </g>
                  <g>
                    <path class="cls-5" d="M586.83,628.63l-114.44-114.44,114.44-114.45,114.44,114.45-114.44,114.44ZM479.69,514.19l107.14,107.14,107.14-107.14-107.14-107.14-107.14,107.14Z"/>
                    <path class="cls-5" d="M586.83,598.19l-84.01-84.01,84.01-84.01,84,84.01-84,84.01ZM510.13,514.19l76.7,76.7,76.7-76.7-76.7-76.7-76.7,76.7Z"/>
                    <path class="cls-5" d="M586.83,568.97l-54.79-54.79,54.79-54.79,54.79,54.79-54.79,54.79ZM539.35,514.19l47.48,47.48,47.48-47.48-47.48-47.48-47.48,47.48Z"/>
                  </g>
                  <g>
                    <path class="cls-5" d="M475.28,739.42l-114.44-114.45,114.44-114.44,114.44,114.44-114.44,114.45ZM368.14,624.97l107.14,107.14,107.14-107.14-107.14-107.14-107.14,107.14Z"/>
                    <path class="cls-5" d="M475.28,708.98l-84.01-84.01,84.01-84.01,84.01,84.01-84.01,84.01ZM398.57,624.97l76.7,76.7,76.7-76.7-76.7-76.7-76.7,76.7Z"/>
                    <path class="cls-5" d="M475.28,679.77l-54.79-54.79,54.79-54.79,54.79,54.79-54.79,54.79ZM427.79,624.97l47.48,47.48,47.48-47.48-47.48-47.48-47.48,47.48Z"/>
                  </g>
                  <g>
                    <path class="cls-5" d="M475.59,517.39l-114.44-114.44,114.44-114.45,114.44,114.45-114.44,114.44ZM368.45,402.94l107.14,107.14,107.14-107.14-107.14-107.14-107.14,107.14Z"/>
                    <path class="cls-5" d="M475.59,486.95l-84.01-84.01,84.01-84.01,84.01,84.01-84.01,84.01ZM398.88,402.94l76.7,76.7,76.7-76.7-76.7-76.7-76.7,76.7Z"/>
                    <path class="cls-5" d="M475.59,457.73l-54.79-54.79,54.79-54.79,54.79,54.79-54.79,54.79ZM428.1,402.94l47.48,47.48,47.48-47.48-47.48-47.48-47.48,47.48Z"/>
                  </g>
                </g>
                <g>
                  <path class="cls-5" d="M585.67,850.6l-114.44-114.44,114.44-114.45,114.44,114.45-114.44,114.44ZM478.53,736.16l107.14,107.14,107.14-107.14-107.14-107.14-107.14,107.14Z"/>
                  <path class="cls-5" d="M808.77,850.6l-114.44-114.44,114.44-114.45,114.44,114.45-114.44,114.44ZM701.63,736.16l107.14,107.14,107.14-107.14-107.14-107.14-107.14,107.14Z"/>
                  <g>
                    <path class="cls-5" d="M697.53,739.36l-114.44-114.44,114.44-114.45,114.44,114.45-114.44,114.44ZM590.39,624.92l107.14,107.14,107.14-107.14-107.14-107.14-107.14,107.14Z"/>
                    <path class="cls-5" d="M697.53,708.92l-84.01-84.01,84.01-84.01,84.01,84.01-84.01,84.01ZM620.82,624.92l76.7,76.7,76.7-76.7-76.7-76.7-76.7,76.7Z"/>
                    <path class="cls-5" d="M697.53,679.71l-54.79-54.79,54.79-54.79,54.79,54.79-54.79,54.79ZM650.04,624.92l47.48,47.48,47.48-47.48-47.48-47.48-47.48,47.48Z"/>
                  </g>
                </g>
              </g>
            </g>
          </g>
          <g>
            <g>
              <g>
                <g>
                  <path class="cls-5" d="M254.35,73.15l-114.44-114.44,114.44-114.45,114.44,114.45-114.44,114.44ZM147.21-41.29l107.14,107.14,107.14-107.14-107.14-107.14-107.14,107.14Z"/>
                  <path class="cls-5" d="M254.35,42.71l-84.01-84.01,84.01-84.01,84.01,84.01-84.01,84.01ZM177.64-41.29l76.7,76.7,76.7-76.7-76.7-76.7-76.7,76.7Z"/>
                  <path class="cls-5" d="M254.35,13.49l-54.79-54.79,54.79-54.79,54.79,54.79-54.79,54.79ZM206.86-41.29L254.35,6.19l47.48-47.48-47.48-47.48-47.48,47.48Z"/>
                </g>
                <g>
                  <g>
                    <path class="cls-5" d="M364.74,184.33l-114.44-114.45,114.44-114.44,114.44,114.44-114.44,114.45ZM257.6,69.89l107.14,107.14,107.14-107.14-107.14-107.14-107.14,107.14Z"/>
                    <path class="cls-5" d="M364.74,153.89l-84.01-84.01L364.74-14.12l84.01,84.01-84.01,84.01ZM288.03,69.89l76.7,76.7,76.7-76.7L364.74-6.81l-76.7,76.7Z"/>
                    <path class="cls-5" d="M364.74,124.68l-54.79-54.79,54.79-54.79,54.79,54.79-54.79,54.79ZM317.25,69.89l47.48,47.48,47.48-47.48-47.48-47.48-47.48,47.48Z"/>
                  </g>
                  <g>
                    <path class="cls-5" d="M587.84,184.33l-114.44-114.45,114.44-114.44,114.44,114.44-114.44,114.45ZM480.7,69.89l107.14,107.14,107.14-107.14-107.14-107.14-107.14,107.14Z"/>
                    <path class="cls-5" d="M587.84,153.89l-84.01-84.01,84.01-84.01,84.01,84.01-84.01,84.01ZM511.14,69.89l76.7,76.7,76.7-76.7L587.84-6.81l-76.7,76.7Z"/>
                    <path class="cls-5" d="M587.84,124.68l-54.79-54.79,54.79-54.79,54.79,54.79-54.79,54.79ZM540.36,69.89l47.48,47.48,47.48-47.48-47.48-47.48-47.48,47.48Z"/>
                  </g>
                  <g>
                    <path class="cls-5" d="M476.29,295.12l-114.44-114.44,114.44-114.45,114.44,114.45-114.44,114.44ZM369.15,180.68l107.14,107.14,107.14-107.14-107.14-107.14-107.14,107.14Z"/>
                    <path class="cls-5" d="M476.29,264.69l-84.01-84.01,84.01-84.01,84,84.01-84,84.01ZM399.58,180.68l76.7,76.7,76.7-76.7-76.7-76.7-76.7,76.7Z"/>
                    <path class="cls-5" d="M476.29,235.47l-54.79-54.79,54.79-54.79,54.79,54.79-54.79,54.79ZM428.8,180.68l47.48,47.48,47.48-47.48-47.48-47.48-47.48,47.48Z"/>
                  </g>
                  <g>
                    <path class="cls-5" d="M476.6,73.09l-114.44-114.44,114.44-114.45,114.44,114.45-114.44,114.44ZM369.46-41.35l107.14,107.14,107.14-107.14-107.14-107.14-107.14,107.14Z"/>
                    <path class="cls-5" d="M476.6,42.65l-84.01-84.01,84.01-84.01,84,84.01-84,84.01ZM399.89-41.35l76.7,76.7,76.7-76.7-76.7-76.7-76.7,76.7Z"/>
                    <path class="cls-5" d="M476.6,13.43l-54.79-54.79,54.79-54.79,54.79,54.79-54.79,54.79ZM429.11-41.35l47.48,47.48,47.48-47.48-47.48-47.48-47.48,47.48Z"/>
                  </g>
                </g>
              </g>
              <g>
                <path class="cls-5" d="M698.62,73.22l-114.44-114.45,114.44-114.45,114.44,114.45-114.44,114.45ZM591.48-41.23l107.14,107.14,107.14-107.14-107.14-107.14-107.14,107.14Z"/>
                <path class="cls-5" d="M698.62,42.78l-84.01-84.01,84.01-84.01,84.01,84.01-84.01,84.01ZM621.92-41.23l76.7,76.7,76.7-76.7-76.7-76.7-76.7,76.7Z"/>
                <path class="cls-5" d="M698.62,13.56l-54.79-54.79,54.79-54.79,54.79,54.79-54.79,54.79ZM651.14-41.23l47.48,47.48,47.48-47.48-47.48-47.48-47.48,47.48Z"/>
              </g>
            </g>
            <g>
              <g>
                <g>
                  <g>
                    <path class="cls-5" d="M586.88,406.32l-114.44-114.45,114.44-114.44,114.44,114.44-114.44,114.45ZM479.74,291.88l107.14,107.14,107.14-107.14-107.14-107.14-107.14,107.14Z"/>
                    <path class="cls-5" d="M586.88,375.88l-84.01-84.01,84.01-84.01,84,84.01-84,84.01ZM510.18,291.88l76.7,76.7,76.7-76.7-76.7-76.7-76.7,76.7Z"/>
                    <path class="cls-5" d="M586.88,346.66l-54.79-54.79,54.79-54.79,54.79,54.79-54.79,54.79ZM539.4,291.88l47.48,47.48,47.48-47.48-47.48-47.48-47.48,47.48Z"/>
                  </g>
                  <g>
                    <path class="cls-5" d="M809.98,406.32l-114.44-114.45,114.44-114.44,114.44,114.44-114.44,114.45ZM702.84,291.88l107.14,107.14,107.14-107.14-107.14-107.14-107.14,107.14Z"/>
                    <path class="cls-5" d="M809.98,375.88l-84.01-84.01,84.01-84.01,84.01,84.01-84.01,84.01ZM733.28,291.88l76.7,76.7,76.7-76.7-76.7-76.7-76.7,76.7Z"/>
                    <path class="cls-5" d="M809.98,346.66l-54.79-54.79,54.79-54.79,54.79,54.79-54.79,54.79ZM762.5,291.88l47.48,47.48,47.48-47.48-47.48-47.48-47.48,47.48Z"/>
                  </g>
                  <g>
                    <path class="cls-5" d="M698.43,517.11l-114.44-114.44,114.44-114.45,114.44,114.45-114.44,114.44ZM591.29,402.67l107.14,107.14,107.14-107.14-107.14-107.14-107.14,107.14Z"/>
                    <path class="cls-5" d="M698.43,486.67l-84.01-84.01,84.01-84.01,84.01,84.01-84.01,84.01ZM621.73,402.67l76.7,76.7,76.7-76.7-76.7-76.7-76.7,76.7Z"/>
                    <path class="cls-5" d="M698.43,457.46l-54.79-54.79,54.79-54.79,54.79,54.79-54.79,54.79ZM650.95,402.67l47.48,47.48,47.48-47.48-47.48-47.48-47.48,47.48Z"/>
                  </g>
                  <g>
                    <path class="cls-5" d="M698.74,295.08l-114.44-114.44,114.44-114.45,114.44,114.45-114.44,114.44ZM591.6,180.63l107.14,107.14,107.14-107.14-107.14-107.14-107.14,107.14Z"/>
                    <path class="cls-5" d="M698.74,264.64l-84.01-84.01,84.01-84.01,84.01,84.01-84.01,84.01ZM622.04,180.63l76.7,76.7,76.7-76.7-76.7-76.7-76.7,76.7Z"/>
                    <path class="cls-5" d="M698.74,235.42l-54.79-54.79,54.79-54.79,54.79,54.79-54.79,54.79ZM651.26,180.63l47.48,47.48,47.48-47.48-47.48-47.48-47.48,47.48Z"/>
                  </g>
                </g>
                <g>
                  <g>
                    <path class="cls-5" d="M808.82,628.3l-114.44-114.45,114.44-114.44,114.44,114.44-114.44,114.45ZM701.68,513.85l107.14,107.14,107.14-107.14-107.14-107.14-107.14,107.14Z"/>
                    <path class="cls-5" d="M808.82,597.86l-84.01-84.01,84.01-84.01,84.01,84.01-84.01,84.01ZM732.12,513.85l76.7,76.7,76.7-76.7-76.7-76.7-76.7,76.7Z"/>
                    <path class="cls-5" d="M808.82,568.64l-54.79-54.79,54.79-54.79,54.79,54.79-54.79,54.79ZM761.34,513.85l47.48,47.48,47.48-47.48-47.48-47.48-47.48,47.48Z"/>
                  </g>
                  <g>
                    <path class="cls-5" d="M1031.92,628.3l-114.44-114.45,114.44-114.44,114.44,114.44-114.44,114.45ZM924.78,513.85l107.14,107.14,107.14-107.14-107.14-107.14-107.14,107.14Z"/>
                    <path class="cls-5" d="M1031.92,597.86l-84-84.01,84-84.01,84.01,84.01-84.01,84.01ZM955.22,513.85l76.7,76.7,76.7-76.7-76.7-76.7-76.7,76.7Z"/>
                    <path class="cls-5" d="M1031.92,568.64l-54.79-54.79,54.79-54.79,54.79,54.79-54.79,54.79ZM984.44,513.85l47.48,47.48,47.48-47.48-47.48-47.48-47.48,47.48Z"/>
                  </g>
                  <g>
                    <path class="cls-5" d="M920.37,739.09l-114.44-114.44,114.44-114.45,114.44,114.45-114.44,114.44ZM813.23,624.64l107.14,107.14,107.14-107.14-107.14-107.14-107.14,107.14Z"/>
                    <path class="cls-5" d="M920.37,708.65l-84.01-84.01,84.01-84.01,84.01,84.01-84.01,84.01ZM843.67,624.64l76.7,76.7,76.7-76.7-76.7-76.7-76.7,76.7Z"/>
                    <path class="cls-5" d="M920.37,679.43l-54.79-54.79,54.79-54.79,54.79,54.79-54.79,54.79ZM872.89,624.64l47.48,47.48,47.48-47.48-47.48-47.48-47.48,47.48Z"/>
                  </g>
                  <g>
                    <path class="cls-5" d="M920.68,517.05l-114.44-114.44,114.44-114.45,114.44,114.45-114.44,114.44ZM813.54,402.61l107.14,107.14,107.14-107.14-107.14-107.14-107.14,107.14Z"/>
                    <path class="cls-5" d="M920.68,486.61l-84.01-84.01,84.01-84.01,84.01,84.01-84.01,84.01ZM843.98,402.61l76.7,76.7,76.7-76.7-76.7-76.7-76.7,76.7Z"/>
                    <path class="cls-5" d="M920.68,457.4l-54.79-54.79,54.79-54.79,54.79,54.79-54.79,54.79ZM873.2,402.61l47.48,47.48,47.48-47.48-47.48-47.48-47.48,47.48Z"/>
                  </g>
                </g>
              </g>
              <g>
                <g>
                  <g>
                    <path class="cls-5" d="M809.21,184.41l-114.44-114.44,114.44-114.45,114.44,114.45-114.44,114.44ZM702.07,69.97l107.14,107.14,107.14-107.14-107.14-107.14-107.14,107.14Z"/>
                    <path class="cls-5" d="M809.21,153.98l-84.01-84.01,84.01-84.01,84.01,84.01-84.01,84.01ZM732.51,69.97l76.7,76.7,76.7-76.7L809.21-6.73l-76.7,76.7Z"/>
                    <path class="cls-5" d="M809.21,124.76l-54.79-54.79,54.79-54.79,54.79,54.79-54.79,54.79ZM761.73,69.97l47.48,47.48,47.48-47.48-47.48-47.48-47.48,47.48Z"/>
                  </g>
                  <g>
                    <path class="cls-5" d="M1032.32,184.41l-114.44-114.44,114.44-114.45,114.44,114.45-114.44,114.44ZM925.18,69.97l107.14,107.14,107.14-107.14-107.14-107.14-107.14,107.14Z"/>
                    <path class="cls-5" d="M1032.32,153.98l-84.01-84.01,84.01-84.01,84.01,84.01-84.01,84.01ZM955.61,69.97l76.7,76.7,76.7-76.7-76.7-76.7-76.7,76.7Z"/>
                    <path class="cls-5" d="M1032.32,124.76l-54.79-54.79,54.79-54.79,54.79,54.79-54.79,54.79ZM984.83,69.97l47.48,47.48,47.48-47.48-47.48-47.48-47.48,47.48Z"/>
                  </g>
                  <g>
                    <path class="cls-5" d="M920.76,295.21l-114.44-114.45,114.44-114.44,114.44,114.44-114.44,114.45ZM813.63,180.76l107.14,107.14,107.14-107.14-107.14-107.14-107.14,107.14Z"/>
                    <path class="cls-5" d="M920.76,264.77l-84.01-84.01,84.01-84.01,84.01,84.01-84.01,84.01ZM844.06,180.76l76.7,76.7,76.7-76.7-76.7-76.7-76.7,76.7Z"/>
                    <path class="cls-5" d="M920.76,235.55l-54.79-54.79,54.79-54.79,54.79,54.79-54.79,54.79ZM873.28,180.76l47.48,47.48,47.48-47.48-47.48-47.48-47.48,47.48Z"/>
                  </g>
                  <g>
                    <path class="cls-5" d="M921.07,73.17l-114.44-114.45,114.44-114.44,114.44,114.44-114.44,114.45ZM813.93-41.27l107.14,107.14,107.14-107.14-107.14-107.14-107.14,107.14Z"/>
                    <path class="cls-5" d="M921.07,42.74l-84.01-84.01,84.01-84.01,84.01,84.01-84.01,84.01ZM844.37-41.27l76.7,76.7,76.7-76.7-76.7-76.7-76.7,76.7Z"/>
                    <path class="cls-5" d="M921.07,13.51l-54.79-54.79,54.79-54.79,54.79,54.79-54.79,54.79ZM873.59-41.27l47.48,47.48,47.48-47.48-47.48-47.48-47.48,47.48Z"/>
                  </g>
                </g>
                <g>
                  <path class="cls-5" d="M1031.15,406.39l-114.44-114.44,114.44-114.45,114.44,114.45-114.44,114.44ZM924.01,291.94l107.14,107.14,107.14-107.14-107.14-107.14-107.14,107.14Z"/>
                  <path class="cls-5" d="M1031.15,375.95l-84-84.01,84-84.01,84.01,84.01-84.01,84.01ZM954.45,291.94l76.7,76.7,76.7-76.7-76.7-76.7-76.7,76.7Z"/>
                  <path class="cls-5" d="M1031.15,346.73l-54.79-54.79,54.79-54.79,54.79,54.79-54.79,54.79ZM983.67,291.94l47.48,47.48,47.48-47.48-47.48-47.48-47.48,47.48Z"/>
                </g>
              </g>
            </g>
          </g>
        </g>
      </g>
      <rect class="cls-2" x="172.22" y="237.96" width="668.57" height="123.38"/>
    </g>
  </g>
</svg>