<?xml version="1.0" encoding="UTF-8"?>
<svg xmlns="http://www.w3.org/2000/svg" xmlns:xlink="http://www.w3.org/1999/xlink" viewBox="0 0 1013 638">
  <defs>
    <style>
      .cls-1 {
        fill: none;
      }

      .cls-2 {
        fill: url(#linear-gradient-8);
      }

      .cls-3 {
        fill: url(#linear-gradient-7);
      }

      .cls-4 {
        fill: url(#linear-gradient-5);
      }

      .cls-5 {
        fill: url(#linear-gradient-6);
      }

      .cls-6 {
        fill: url(#linear-gradient-9);
      }

      .cls-7 {
        fill: url(#linear-gradient-4);
      }

      .cls-8 {
        fill: url(#linear-gradient-3);
      }

      .cls-9 {
        fill: url(#linear-gradient-2);
      }

      .cls-10, .cls-11, .cls-12 {
        fill: #717990;
      }

      .cls-13 {
        fill: url(#linear-gradient);
      }

      .cls-14 {
        isolation: isolate;
      }

      .cls-15 {
        clip-path: url(#clippath-1);
      }

      .cls-16, .cls-17, .cls-18 {
        fill: #fff;
      }

      .cls-11 {
        font-size: 65.11px;
      }

      .cls-11, .cls-17, .cls-18, .cls-19 {
        font-weight: 800;
      }

      .cls-11, .cls-18 {
        font-family: Orbitron-Black, Orbitron;
      }

      .cls-20 {
        fill: url(#linear-gradient-43);
      }

      .cls-21 {
        fill: url(#linear-gradient-40);
      }

      .cls-22 {
        fill: url(#linear-gradient-41);
      }

      .cls-23 {
        fill: url(#linear-gradient-42);
      }

      .cls-24 {
        fill: url(#linear-gradient-48);
      }

      .cls-25 {
        fill: url(#linear-gradient-45);
      }

      .cls-26 {
        fill: url(#linear-gradient-47);
      }

      .cls-27 {
        fill: url(#linear-gradient-44);
      }

      .cls-28 {
        fill: url(#linear-gradient-46);
      }

      .cls-29 {
        fill: url(#linear-gradient-10);
      }

      .cls-30 {
        fill: url(#linear-gradient-11);
      }

      .cls-31 {
        fill: url(#linear-gradient-12);
      }

      .cls-32 {
        fill: url(#linear-gradient-13);
      }

      .cls-33 {
        fill: url(#linear-gradient-19);
      }

      .cls-34 {
        fill: url(#linear-gradient-14);
      }

      .cls-35 {
        fill: url(#linear-gradient-21);
      }

      .cls-36 {
        fill: url(#linear-gradient-20);
      }

      .cls-37 {
        fill: url(#linear-gradient-22);
      }

      .cls-38 {
        fill: url(#linear-gradient-23);
      }

      .cls-39 {
        fill: url(#linear-gradient-28);
      }

      .cls-40 {
        fill: url(#linear-gradient-25);
      }

      .cls-41 {
        fill: url(#linear-gradient-32);
      }

      .cls-42 {
        fill: url(#linear-gradient-31);
      }

      .cls-43 {
        fill: url(#linear-gradient-33);
      }

      .cls-44 {
        fill: url(#linear-gradient-30);
      }

      .cls-45 {
        fill: url(#linear-gradient-15);
      }

      .cls-46 {
        fill: url(#linear-gradient-16);
      }

      .cls-47 {
        fill: url(#linear-gradient-17);
      }

      .cls-48 {
        fill: url(#linear-gradient-18);
      }

      .cls-49 {
        fill: url(#linear-gradient-35);
      }

      .cls-50 {
        fill: url(#linear-gradient-34);
      }

      .cls-51 {
        fill: url(#linear-gradient-36);
      }

      .cls-52 {
        fill: url(#linear-gradient-38);
      }

      .cls-53 {
        fill: url(#linear-gradient-27);
      }

      .cls-54 {
        fill: url(#linear-gradient-24);
      }

      .cls-55 {
        fill: url(#linear-gradient-26);
      }

      .cls-56 {
        fill: url(#linear-gradient-29);
      }

      .cls-57 {
        fill: url(#linear-gradient-37);
      }

      .cls-58 {
        fill: url(#linear-gradient-39);
      }

      .cls-59 {
        mix-blend-mode: overlay;
        opacity: .4;
      }

      .cls-60 {
        letter-spacing: -.02em;
      }

      .cls-17, .cls-18 {
        font-size: 59.11px;
      }

      .cls-17, .cls-19 {
        font-family: Poppins-Black, Poppins;
      }

      .cls-12 {
        font-family: Alegreya-Regular, Alegreya;
        font-size: 35.23px;
      }

      .cls-19 {
        fill: #1d1d1b;
        font-size: 24px;
      }

      .cls-61 {
        letter-spacing: .09em;
      }

      .cls-62 {
        letter-spacing: .09em;
      }

      .cls-63 {
        letter-spacing: .1em;
      }

      .cls-64 {
        letter-spacing: .07em;
      }

      .cls-65 {
        letter-spacing: .09em;
      }

      .cls-66 {
        clip-path: url(#clippath);
      }
    </style>
    <clipPath id="clippath">
      <rect class="cls-1" x="-1145.05" width="1118.9" height="642.91" rx="13" ry="13"/>
    </clipPath>
    <clipPath id="clippath-1">
      <rect class="cls-1" x="-48.68" y="-.73" width="1110.36" height="638" rx="13" ry="13"/>
    </clipPath>
    <linearGradient id="linear-gradient" x1="336.15" y1="-12.12" x2="2205.66" y2="-326.45" gradientUnits="userSpaceOnUse">
      <stop offset="0" stop-color="#89c9b2"/>
      <stop offset="1" stop-color="#233d91"/>
    </linearGradient>
    <linearGradient id="linear-gradient-2" x1="336.15" y1="-12.12" x2="2205.67" y2="-326.45" xlink:href="#linear-gradient"/>
    <linearGradient id="linear-gradient-3" x1="336.15" y1="-12.12" x2="2205.67" y2="-326.45" xlink:href="#linear-gradient"/>
    <linearGradient id="linear-gradient-4" x1="342.23" y1="24.08" x2="2211.75" y2="-290.25" xlink:href="#linear-gradient"/>
    <linearGradient id="linear-gradient-5" x1="342.23" y1="24.08" x2="2211.75" y2="-290.25" xlink:href="#linear-gradient"/>
    <linearGradient id="linear-gradient-6" x1="342.23" y1="24.08" x2="2211.75" y2="-290.25" xlink:href="#linear-gradient"/>
    <linearGradient id="linear-gradient-7" x1="357.17" y1="112.9" x2="2226.68" y2="-201.43" xlink:href="#linear-gradient"/>
    <linearGradient id="linear-gradient-8" x1="357.17" y1="112.9" x2="2226.68" y2="-201.43" xlink:href="#linear-gradient"/>
    <linearGradient id="linear-gradient-9" x1="357.17" y1="112.9" x2="2226.68" y2="-201.43" xlink:href="#linear-gradient"/>
    <linearGradient id="linear-gradient-10" x1="378.22" y1="238.11" x2="2247.74" y2="-76.21" xlink:href="#linear-gradient"/>
    <linearGradient id="linear-gradient-11" x1="378.22" y1="238.11" x2="2247.74" y2="-76.21" xlink:href="#linear-gradient"/>
    <linearGradient id="linear-gradient-12" x1="378.22" y1="238.11" x2="2247.73" y2="-76.21" xlink:href="#linear-gradient"/>
    <linearGradient id="linear-gradient-13" x1="384.31" y1="274.32" x2="2253.82" y2="-40.01" xlink:href="#linear-gradient"/>
    <linearGradient id="linear-gradient-14" x1="384.3" y1="274.32" x2="2253.83" y2="-40.01" xlink:href="#linear-gradient"/>
    <linearGradient id="linear-gradient-15" x1="384.3" y1="274.32" x2="2253.82" y2="-40.01" xlink:href="#linear-gradient"/>
    <linearGradient id="linear-gradient-16" x1="399.24" y1="363.14" x2="2268.76" y2="48.81" xlink:href="#linear-gradient"/>
    <linearGradient id="linear-gradient-17" x1="399.24" y1="363.14" x2="2268.76" y2="48.81" xlink:href="#linear-gradient"/>
    <linearGradient id="linear-gradient-18" x1="399.24" y1="363.14" x2="2268.75" y2="48.81" xlink:href="#linear-gradient"/>
    <linearGradient id="linear-gradient-19" x1="363.22" y1="148.91" x2="2232.74" y2="-165.42" xlink:href="#linear-gradient"/>
    <linearGradient id="linear-gradient-20" x1="363.22" y1="148.91" x2="2232.74" y2="-165.42" xlink:href="#linear-gradient"/>
    <linearGradient id="linear-gradient-21" x1="363.22" y1="148.91" x2="2232.74" y2="-165.42" xlink:href="#linear-gradient"/>
    <linearGradient id="linear-gradient-22" x1="348.28" y1="60.03" x2="2217.79" y2="-254.3" xlink:href="#linear-gradient"/>
    <linearGradient id="linear-gradient-23" x1="348.28" y1="60.03" x2="2217.79" y2="-254.3" xlink:href="#linear-gradient"/>
    <linearGradient id="linear-gradient-24" x1="348.28" y1="60.03" x2="2217.79" y2="-254.3" xlink:href="#linear-gradient"/>
    <linearGradient id="linear-gradient-25" x1="354.36" y1="96.23" x2="2223.88" y2="-218.1" xlink:href="#linear-gradient"/>
    <linearGradient id="linear-gradient-26" x1="354.36" y1="96.23" x2="2223.88" y2="-218.1" xlink:href="#linear-gradient"/>
    <linearGradient id="linear-gradient-27" x1="354.36" y1="96.23" x2="2223.88" y2="-218.09" xlink:href="#linear-gradient"/>
    <linearGradient id="linear-gradient-28" x1="369.3" y1="185.06" x2="2238.81" y2="-129.27" xlink:href="#linear-gradient"/>
    <linearGradient id="linear-gradient-29" x1="369.3" y1="185.06" x2="2238.81" y2="-129.27" xlink:href="#linear-gradient"/>
    <linearGradient id="linear-gradient-30" x1="369.3" y1="185.06" x2="2238.81" y2="-129.27" xlink:href="#linear-gradient"/>
    <linearGradient id="linear-gradient-31" x1="420.3" y1="488.4" x2="2289.82" y2="174.07" xlink:href="#linear-gradient"/>
    <linearGradient id="linear-gradient-32" x1="420.3" y1="488.4" x2="2289.82" y2="174.07" xlink:href="#linear-gradient"/>
    <linearGradient id="linear-gradient-33" x1="420.3" y1="488.4" x2="2289.82" y2="174.07" xlink:href="#linear-gradient"/>
    <linearGradient id="linear-gradient-34" x1="426.39" y1="524.6" x2="2295.9" y2="210.27" xlink:href="#linear-gradient"/>
    <linearGradient id="linear-gradient-35" x1="426.38" y1="524.6" x2="2295.91" y2="210.27" xlink:href="#linear-gradient"/>
    <linearGradient id="linear-gradient-36" x1="426.38" y1="524.6" x2="2295.9" y2="210.27" xlink:href="#linear-gradient"/>
    <linearGradient id="linear-gradient-37" x1="441.32" y1="613.42" x2="2310.84" y2="299.09" xlink:href="#linear-gradient"/>
    <linearGradient id="linear-gradient-38" x1="441.32" y1="613.42" x2="2310.84" y2="299.09" xlink:href="#linear-gradient"/>
    <linearGradient id="linear-gradient-39" x1="441.32" y1="613.42" x2="2310.83" y2="299.09" xlink:href="#linear-gradient"/>
    <linearGradient id="linear-gradient-40" x1="405.3" y1="399.19" x2="2274.82" y2="84.86" xlink:href="#linear-gradient"/>
    <linearGradient id="linear-gradient-41" x1="405.3" y1="399.19" x2="2274.82" y2="84.86" xlink:href="#linear-gradient"/>
    <linearGradient id="linear-gradient-42" x1="405.3" y1="399.19" x2="2274.82" y2="84.86" xlink:href="#linear-gradient"/>
    <linearGradient id="linear-gradient-43" x1="462.37" y1="738.63" x2="2331.89" y2="424.31" xlink:href="#linear-gradient"/>
    <linearGradient id="linear-gradient-44" x1="462.37" y1="738.63" x2="2331.89" y2="424.31" xlink:href="#linear-gradient"/>
    <linearGradient id="linear-gradient-45" x1="462.37" y1="738.63" x2="2331.89" y2="424.31" xlink:href="#linear-gradient"/>
    <linearGradient id="linear-gradient-46" x1="390.36" y1="310.31" x2="2259.87" y2="-4.01" xlink:href="#linear-gradient"/>
    <linearGradient id="linear-gradient-47" x1="390.36" y1="310.31" x2="2259.88" y2="-4.02" xlink:href="#linear-gradient"/>
    <linearGradient id="linear-gradient-48" x1="390.36" y1="310.31" x2="2259.87" y2="-4.01" xlink:href="#linear-gradient"/>
  </defs>
  <g class="cls-14">
    <g id="Layer_1" data-name="Layer 1">
      <g class="cls-66">
        <g class="cls-59">
          <g>
            <g>
              <path class="cls-16" d="M-41.08,628.3l-114.44-114.45,114.44-114.44,114.44,114.44-114.44,114.45ZM-148.22,513.85l107.14,107.14,107.14-107.14-107.14-107.14-107.14,107.14Z"/>
              <path class="cls-16" d="M-41.08,597.86l-84-84.01,84-84.01,84.01,84.01-84.01,84.01ZM-117.78,513.85l76.7,76.7,76.7-76.7-76.7-76.7-76.7,76.7Z"/>
              <path class="cls-16" d="M-41.08,568.64l-54.79-54.79,54.79-54.79,54.79,54.79-54.79,54.79ZM-88.56,513.85l47.48,47.48,47.48-47.48-47.48-47.48-47.48,47.48Z"/>
            </g>
            <g>
              <g>
                <path class="cls-16" d="M-40.68,184.41l-114.44-114.44L-40.68-44.48l114.44,114.45-114.44,114.44ZM-147.82,69.97l107.14,107.14,107.14-107.14L-40.68-37.17l-107.14,107.14Z"/>
                <path class="cls-16" d="M-40.68,153.98l-84.01-84.01L-40.68-14.04,43.32,69.97l-84.01,84.01ZM-117.39,69.97l76.7,76.7L36.02,69.97-40.68-6.73l-76.7,76.7Z"/>
                <path class="cls-16" d="M-40.68,124.76l-54.79-54.79L-40.68,15.18,14.1,69.97l-54.79,54.79ZM-88.17,69.97l47.48,47.48L6.8,69.97-40.68,22.49l-47.48,47.48Z"/>
              </g>
              <g>
                <g>
                  <path class="cls-16" d="M-41.85,406.39l-114.44-114.44,114.44-114.45,114.44,114.45-114.44,114.44ZM-148.99,291.94l107.14,107.14,107.14-107.14-107.14-107.14-107.14,107.14Z"/>
                  <path class="cls-16" d="M-41.85,375.95l-84-84.01,84-84.01,84.01,84.01-84.01,84.01ZM-118.55,291.94l76.7,76.7,76.7-76.7-76.7-76.7-76.7,76.7Z"/>
                  <path class="cls-16" d="M-41.85,346.73l-54.79-54.79,54.79-54.79,54.79,54.79-54.79,54.79ZM-89.33,291.94l47.48,47.48,47.48-47.48-47.48-47.48-47.48,47.48Z"/>
                </g>
                <g>
                  <path class="cls-16" d="M181.26,406.39l-114.44-114.44,114.44-114.45,114.44,114.45-114.44,114.44ZM74.12,291.94l107.14,107.14,107.14-107.14-107.14-107.14-107.14,107.14Z"/>
                  <path class="cls-16" d="M181.26,375.95l-84.01-84.01,84.01-84.01,84,84.01-84,84.01ZM104.56,291.94l76.7,76.7,76.7-76.7-76.7-76.7-76.7,76.7Z"/>
                  <path class="cls-16" d="M181.26,346.73l-54.79-54.79,54.79-54.79,54.79,54.79-54.79,54.79ZM133.77,291.94l47.48,47.48,47.48-47.48-47.48-47.48-47.48,47.48Z"/>
                </g>
                <g>
                  <path class="cls-16" d="M69.71,517.18l-114.44-114.45,114.44-114.44,114.44,114.44-114.44,114.45ZM-37.43,402.73l107.14,107.14,107.14-107.14-107.14-107.14-107.14,107.14Z"/>
                  <path class="cls-16" d="M69.71,486.74L-14.3,402.73l84.01-84.01,84.01,84.01-84.01,84.01ZM-7,402.73l76.7,76.7,76.7-76.7-76.7-76.7L-7,402.73Z"/>
                  <path class="cls-16" d="M69.71,457.52l-54.79-54.79,54.79-54.79,54.79,54.79-54.79,54.79ZM22.22,402.73l47.48,47.48,47.48-47.48-47.48-47.48-47.48,47.48Z"/>
                </g>
                <g>
                  <path class="cls-16" d="M70.01,295.15l-114.44-114.45,114.44-114.44,114.44,114.44-114.44,114.45ZM-37.12,180.7l107.14,107.14,107.14-107.14-107.14-107.14-107.14,107.14Z"/>
                  <path class="cls-16" d="M70.01,264.71L-13.99,180.7l84.01-84.01,84.01,84.01-84.01,84.01ZM-6.69,180.7l76.7,76.7,76.7-76.7-76.7-76.7L-6.69,180.7Z"/>
                  <path class="cls-16" d="M70.01,235.49l-54.79-54.79,54.79-54.79,54.79,54.79-54.79,54.79ZM22.53,180.7l47.48,47.48,47.48-47.48-47.48-47.48-47.48,47.48Z"/>
                </g>
              </g>
            </g>
          </g>
        </g>
      </g>
      <rect class="cls-16" y=".34" width="1118.3" height="642.56" rx="13" ry="13"/>
      <g class="cls-15">
        <g>
          <g>
            <g>
              <g>
                <g>
                  <path class="cls-13" d="M391.13,92.2l-113.57-113.57,113.57-113.57,113.57,113.57-113.57,113.57ZM284.81-21.37l106.32,106.32,106.32-106.32-106.32-106.32-106.32,106.32Z"/>
                  <path class="cls-9" d="M391.13,62l-83.37-83.37,83.37-83.37,83.37,83.37-83.37,83.37ZM315.01-21.37l76.12,76.12,76.12-76.12-76.12-76.11-76.12,76.11Z"/>
                  <path class="cls-8" d="M391.13,33l-54.37-54.37,54.37-54.37,54.37,54.37-54.37,54.37ZM344.01-21.37l47.12,47.12,47.12-47.12-47.12-47.12-47.12,47.12Z"/>
                </g>
                <g>
                  <path class="cls-7" d="M612.53,92.2l-113.57-113.57,113.57-113.57,113.57,113.57-113.57,113.57ZM506.21-21.37l106.32,106.32,106.32-106.32-106.32-106.32-106.32,106.32Z"/>
                  <path class="cls-4" d="M612.53,62l-83.37-83.37,83.37-83.37,83.37,83.37-83.37,83.37ZM536.42-21.37l76.12,76.12,76.12-76.12-76.12-76.11-76.12,76.11Z"/>
                  <path class="cls-5" d="M612.53,33l-54.37-54.37,54.37-54.37,54.37,54.37-54.37,54.37ZM565.41-21.37l47.12,47.12,47.12-47.12-47.12-47.12-47.12,47.12Z"/>
                </g>
                <g>
                  <path class="cls-3" d="M501.83,202.15l-113.57-113.57,113.57-113.57,113.57,113.57-113.57,113.57ZM395.51,88.58l106.32,106.32,106.32-106.32-106.32-106.32-106.32,106.32Z"/>
                  <path class="cls-2" d="M501.83,171.94l-83.37-83.37L501.83,5.21l83.36,83.37-83.36,83.37ZM425.72,88.58l76.12,76.11,76.12-76.11L501.83,12.46l-76.12,76.11Z"/>
                  <path class="cls-6" d="M501.83,142.95l-54.37-54.37,54.37-54.37,54.37,54.37-54.37,54.37ZM454.71,88.58l47.12,47.12,47.12-47.12-47.12-47.12-47.12,47.12Z"/>
                </g>
              </g>
              <g>
                <g>
                  <path class="cls-29" d="M611.38,312.48l-113.57-113.57,113.57-113.57,113.57,113.57-113.57,113.57ZM505.06,198.91l106.32,106.32,106.32-106.32-106.32-106.32-106.32,106.32Z"/>
                  <path class="cls-30" d="M611.38,282.28l-83.37-83.37,83.37-83.37,83.36,83.37-83.36,83.37ZM535.26,198.91l76.12,76.12,76.12-76.12-76.12-76.11-76.12,76.11Z"/>
                  <path class="cls-31" d="M611.38,253.28l-54.37-54.37,54.37-54.37,54.37,54.37-54.37,54.37ZM564.26,198.91l47.12,47.12,47.12-47.12-47.12-47.12-47.12,47.12Z"/>
                </g>
                <g>
                  <path class="cls-32" d="M832.78,312.48l-113.57-113.57,113.57-113.57,113.57,113.57-113.57,113.57ZM726.46,198.91l106.32,106.32,106.32-106.32-106.32-106.32-106.32,106.32Z"/>
                  <path class="cls-34" d="M832.78,282.28l-83.37-83.37,83.37-83.37,83.37,83.37-83.37,83.37ZM756.66,198.91l76.12,76.12,76.12-76.12-76.12-76.11-76.12,76.11Z"/>
                  <path class="cls-45" d="M832.78,253.28l-54.37-54.37,54.37-54.37,54.37,54.37-54.37,54.37ZM785.66,198.91l47.12,47.12,47.12-47.12-47.12-47.12-47.12,47.12Z"/>
                </g>
                <g>
                  <path class="cls-46" d="M722.08,422.43l-113.57-113.57,113.57-113.57,113.57,113.57-113.57,113.57ZM615.76,308.86l106.32,106.32,106.32-106.32-106.32-106.32-106.32,106.32Z"/>
                  <path class="cls-47" d="M722.08,392.22l-83.37-83.37,83.37-83.37,83.37,83.37-83.37,83.37ZM645.96,308.86l76.12,76.11,76.12-76.11-76.12-76.11-76.12,76.11Z"/>
                  <path class="cls-48" d="M722.08,363.23l-54.37-54.37,54.37-54.37,54.37,54.37-54.37,54.37ZM674.96,308.86l47.12,47.12,47.12-47.12-47.12-47.12-47.12,47.12Z"/>
                </g>
                <g>
                  <path class="cls-33" d="M722.39,202.09l-113.57-113.57,113.57-113.57,113.57,113.57-113.57,113.57ZM616.06,88.52l106.32,106.32,106.32-106.32-106.32-106.32-106.32,106.32Z"/>
                  <path class="cls-36" d="M722.39,171.89l-83.37-83.37L722.39,5.15l83.37,83.37-83.37,83.37ZM646.27,88.52l76.12,76.12,76.12-76.12-76.12-76.11-76.12,76.11Z"/>
                  <path class="cls-35" d="M722.39,142.89l-54.37-54.37,54.37-54.37,54.37,54.37-54.37,54.37ZM675.27,88.52l47.12,47.12,47.12-47.12-47.12-47.12-47.12,47.12Z"/>
                </g>
              </g>
            </g>
            <g>
              <g>
                <path class="cls-37" d="M832.02,92.27l-113.57-113.57,113.57-113.57,113.57,113.57-113.57,113.57ZM725.7-21.3l106.32,106.32,106.32-106.32-106.32-106.32-106.32,106.32Z"/>
                <path class="cls-38" d="M832.02,62.06l-83.37-83.37,83.37-83.37,83.37,83.37-83.37,83.37ZM755.9-21.3l76.12,76.11,76.12-76.11-76.12-76.12-76.12,76.12Z"/>
                <path class="cls-54" d="M832.02,33.07l-54.37-54.37,54.37-54.37,54.37,54.37-54.37,54.37ZM784.9-21.3l47.12,47.12,47.12-47.12-47.12-47.12-47.12,47.12Z"/>
              </g>
              <g>
                <path class="cls-40" d="M1053.42,92.27l-113.57-113.57,113.57-113.57,113.57,113.57-113.57,113.57ZM947.1-21.3l106.32,106.32,106.32-106.32-106.32-106.32-106.32,106.32Z"/>
                <path class="cls-55" d="M1053.42,62.06l-83.37-83.37,83.37-83.37,83.37,83.37-83.37,83.37ZM977.3-21.3l76.12,76.11,76.12-76.11-76.12-76.12-76.12,76.12Z"/>
                <path class="cls-53" d="M1053.42,33.07l-54.37-54.37,54.37-54.37,54.37,54.37-54.37,54.37ZM1006.3-21.3l47.12,47.12,47.12-47.12-47.12-47.12-47.12,47.12Z"/>
              </g>
              <g>
                <path class="cls-39" d="M942.72,202.22l-113.57-113.57,113.57-113.57,113.57,113.57-113.57,113.57ZM836.39,88.64l106.32,106.32,106.32-106.32-106.32-106.32-106.32,106.32Z"/>
                <path class="cls-56" d="M942.72,172.01l-83.36-83.37L942.72,5.28l83.37,83.37-83.37,83.37ZM866.6,88.64l76.12,76.12,76.12-76.12-76.12-76.11-76.12,76.11Z"/>
                <path class="cls-44" d="M942.72,143.02l-54.37-54.37,54.37-54.37,54.37,54.37-54.37,54.37ZM895.6,88.64l47.12,47.12,47.12-47.12-47.12-47.12-47.12,47.12Z"/>
              </g>
            </g>
          </g>
          <g>
            <g>
              <g>
                <g>
                  <path class="cls-42" d="M831.83,532.78l-113.57-113.57,113.57-113.57,113.57,113.57-113.57,113.57ZM725.51,419.2l106.32,106.32,106.32-106.32-106.32-106.32-106.32,106.32Z"/>
                  <path class="cls-41" d="M831.83,502.57l-83.37-83.37,83.37-83.37,83.37,83.37-83.37,83.37ZM755.71,419.2l76.12,76.12,76.12-76.12-76.12-76.11-76.12,76.11Z"/>
                  <path class="cls-43" d="M831.83,473.58l-54.37-54.37,54.37-54.37,54.37,54.37-54.37,54.37ZM784.71,419.2l47.12,47.12,47.12-47.12-47.12-47.12-47.12,47.12Z"/>
                </g>
                <g>
                  <path class="cls-50" d="M1053.23,532.78l-113.57-113.57,113.57-113.57,113.57,113.57-113.57,113.57ZM946.91,419.2l106.32,106.32,106.32-106.32-106.32-106.32-106.32,106.32Z"/>
                  <path class="cls-49" d="M1053.23,502.57l-83.36-83.37,83.36-83.37,83.37,83.37-83.37,83.37ZM977.11,419.2l76.12,76.12,76.12-76.12-76.12-76.11-76.12,76.11Z"/>
                  <path class="cls-51" d="M1053.23,473.58l-54.37-54.37,54.37-54.37,54.37,54.37-54.37,54.37ZM1006.11,419.2l47.12,47.12,47.12-47.12-47.12-47.12-47.12,47.12Z"/>
                </g>
                <g>
                  <path class="cls-57" d="M942.53,642.72l-113.57-113.57,113.57-113.57,113.57,113.57-113.57,113.57ZM836.21,529.15l106.32,106.32,106.32-106.32-106.32-106.32-106.32,106.32Z"/>
                  <path class="cls-52" d="M942.53,612.52l-83.37-83.37,83.37-83.37,83.37,83.37-83.37,83.37ZM866.41,529.15l76.12,76.11,76.12-76.11-76.12-76.11-76.12,76.11Z"/>
                  <path class="cls-58" d="M942.53,583.52l-54.37-54.37,54.37-54.37,54.37,54.37-54.37,54.37ZM895.41,529.15l47.12,47.12,47.12-47.12-47.12-47.12-47.12,47.12Z"/>
                </g>
                <g>
                  <path class="cls-21" d="M942.84,422.38l-113.57-113.57,113.57-113.57,113.57,113.57-113.57,113.57ZM836.51,308.81l106.32,106.32,106.32-106.32-106.32-106.32-106.32,106.32Z"/>
                  <path class="cls-22" d="M942.84,392.18l-83.37-83.37,83.37-83.37,83.37,83.37-83.37,83.37ZM866.72,308.81l76.12,76.12,76.12-76.12-76.12-76.11-76.12,76.11Z"/>
                  <path class="cls-23" d="M942.84,363.18l-54.37-54.37,54.37-54.37,54.37,54.37-54.37,54.37ZM895.72,308.81l47.12,47.12,47.12-47.12-47.12-47.12-47.12,47.12Z"/>
                </g>
              </g>
              <g>
                <path class="cls-20" d="M1052.08,753.06l-113.57-113.57,113.57-113.57,113.57,113.57-113.57,113.57ZM945.75,639.48l106.32,106.32,106.32-106.32-106.32-106.32-106.32,106.32Z"/>
                <path class="cls-27" d="M1052.08,722.85l-83.37-83.37,83.37-83.37,83.37,83.37-83.37,83.37ZM975.96,639.48l76.12,76.12,76.12-76.12-76.12-76.11-76.12,76.11Z"/>
                <path class="cls-25" d="M1052.08,693.86l-54.37-54.37,54.37-54.37,54.37,54.37-54.37,54.37ZM1004.96,639.48l47.12,47.12,47.12-47.12-47.12-47.12-47.12,47.12Z"/>
              </g>
            </g>
            <g>
              <path class="cls-28" d="M1052.47,312.56l-113.57-113.57,113.57-113.57,113.57,113.57-113.57,113.57ZM946.14,198.99l106.32,106.32,106.32-106.32-106.32-106.32-106.32,106.32Z"/>
              <path class="cls-26" d="M1052.47,282.36l-83.36-83.37,83.36-83.37,83.37,83.37-83.37,83.37ZM976.35,198.99l76.12,76.11,76.12-76.11-76.12-76.12-76.12,76.12Z"/>
              <path class="cls-24" d="M1052.47,253.36l-54.37-54.37,54.37-54.37,54.37,54.37-54.37,54.37ZM1005.35,198.99l47.12,47.12,47.12-47.12-47.12-47.12-47.12,47.12Z"/>
            </g>
          </g>
        </g>
      </g>
    </g>
  </g>
</svg>